<?xml version="1.0" encoding="UTF-8"?>
<svg version="1.1" xmlns="http://www.w3.org/2000/svg" width="512" height="512" viewBox="0 0 256 256">
    <defs>
        <linearGradient id="myGradient" gradientTransform="rotate(45)">
            <stop offset="5%" stop-color="#555" />
            <stop offset="95%" stop-color="black" />
        </linearGradient>
    </defs>

    <rect x="0" y="0" width="256" height="256" fill="url('#myGradient')" />

    <rect x="23" y="-8" width="16" height="50" fill="#339af0" rx="4" />
    <rect x="66" y="37" width="24" height="64" fill="#339af0" rx="6" />
    <rect x="0" y="100" width="24" height="128" fill="#339af0" rx="6" />

    <rect x="160" y="-8" width="24" height="40" fill="#ff6b6b" rx="6" />
    <rect x="192" y="24" width="24" height="40" fill="#ff6b6b" rx="6" />
    <rect x="160" y="58" width="24" height="40" fill="#ff6b6b" rx="6" />
    <rect x="192" y="90" width="24" height="40" fill="#ff6b6b" rx="6" />
    <rect x="160" y="122" width="24" height="40" fill="#ff6b6b" rx="6" />
    <rect x="119" y="26" width="16" height="138" fill="#ff6b6b" rx="4" />

    <rect x="-2" y="140" width="34" height="128" fill="#74c0fc" stroke-width="4" stroke="black" />
    <rect x="32" y="140" width="32" height="128" fill="white" stroke-width="4" stroke="black" />
    <rect x="64" y="140" width="32" height="128" fill="white" stroke-width="4" stroke="black" />
    <rect x="96" y="140" width="32" height="128" fill="white" stroke-width="4" stroke="black" />
    <rect x="128" y="140" width="32" height="128" fill="white" stroke-width="4" stroke="black" />
    <rect x="160" y="140" width="32" height="128" fill="#ffa8a8" stroke-width="4" stroke="black" />
    <rect x="192" y="140" width="32" height="128" fill="white" stroke-width="4" stroke="black" />
    <rect x="224" y="140" width="34" height="128" fill="white" stroke-width="4" stroke="black" />

    <rect x="0" y="128" width="256" height="16" fill="#444" />

    <rect x="23" y="143" width="16" height="70" fill="black" rx="4" />
    <rect x="23" y="143" width="16" height="64" fill="black" />

    <rect x="57" y="143" width="16" height="70" fill="black" rx="4" />
    <rect x="57" y="143" width="16" height="64" fill="black" />

    <rect x="119" y="144" width="16" height="70" fill="#ffa8a8" rx="4" />
    <rect x="119" y="144" width="16" height="64" fill="#ffa8a8" />

    <rect x="151" y="143" width="17" height="70" fill="black" rx="4" />
    <rect x="151" y="143" width="17" height="64" fill="black" />

    <rect x="185" y="143" width="16" height="70" fill="black" rx="4" />
    <rect x="185" y="143" width="16" height="64" fill="black" />

    <rect x="246" y="143" width="16" height="70" fill="black" rx="4" />
    <rect x="246" y="143" width="16" height="64" fill="black" />
</svg>
