<svg xmlns="http://www.w3.org/2000/svg" width="32" height="32" viewBox="0 0 256 256">
    <rect x="0" y="0" width="256" height="256" fill="black" />

    <rect x="23" y="-8" width="16" height="50" fill="#339af0" rx="4" />
    <rect x="64" y="37" width="32" height="64" fill="#339af0" stroke-width="6" stroke="black" rx="8" />
    <rect x="-2" y="100" width="34" height="128" fill="#339af0" stroke-width="6" stroke="black" rx="8" />

    <rect x="160" y="-10" width="32" height="40" fill="#ff6b6b" stroke-width="6" stroke="black" rx="8" />
    <rect x="192" y="22" width="32" height="40" fill="#ff6b6b" stroke-width="6" stroke="black" rx="8" />
    <rect x="160" y="56" width="32" height="40" fill="#ff6b6b" stroke-width="6" stroke="black" rx="8" />
    <rect x="192" y="88" width="32" height="40" fill="#ff6b6b" stroke-width="6" stroke="black" rx="8" />
    <rect x="160" y="120" width="32" height="40" fill="#ff6b6b" stroke-width="6" stroke="black" rx="8" />
    <rect x="119" y="26" width="16" height="138" fill="#ff6b6b" rx="4" />

    <rect x="-2" y="140" width="34" height="128" fill="white" stroke-width="4" stroke="black" />
    <rect x="32" y="140" width="32" height="128" fill="white" stroke-width="4" stroke="black" />
    <rect x="64" y="140" width="32" height="128" fill="white" stroke-width="4" stroke="black" />
    <rect x="96" y="140" width="32" height="128" fill="white" stroke-width="4" stroke="black" />
    <rect x="128" y="140" width="32" height="128" fill="white" stroke-width="4" stroke="black" />
    <rect x="160" y="140" width="32" height="128" fill="white" stroke-width="4" stroke="black" />
    <rect x="192" y="140" width="32" height="128" fill="white" stroke-width="4" stroke="black" />
    <rect x="224" y="140" width="34" height="128" fill="white" stroke-width="4" stroke="black" />

    <rect x="0" y="128" width="256" height="16" fill="#444" />

    <rect x="23" y="143" width="16" height="70" fill="black" rx="4" />
    <rect x="23" y="143" width="16" height="64" fill="black" />

    <rect x="57" y="143" width="16" height="70" fill="black" rx="4" />
    <rect x="57" y="143" width="16" height="64" fill="black" />

    <rect x="119" y="143" width="16" height="70" fill="black" rx="4" />
    <rect x="119" y="143" width="16" height="64" fill="black" />

    <rect x="151" y="143" width="17" height="70" fill="black" rx="4" />
    <rect x="151" y="143" width="17" height="64" fill="black" />

    <rect x="185" y="143" width="16" height="70" fill="black" rx="4" />
    <rect x="185" y="143" width="16" height="64" fill="black" />

    <rect x="246" y="143" width="16" height="70" fill="black" rx="4" />
    <rect x="246" y="143" width="16" height="64" fill="black" />
</svg>
